<svg width="360" height="632" viewBox="0 0 360 632" fill="none" xmlns="http://www.w3.org/2000/svg">
<path d="M309 629V51H130.732V477H-23V629H309Z" stroke="white" stroke-width="5"/>
<rect x="165.5" y="140.5" width="107" height="138" rx="7.5" stroke="white" stroke-width="5"/>
<path d="M133.646 15.6464C133.451 15.8417 133.451 16.1583 133.646 16.3536L136.828 19.5355C137.024 19.7308 137.34 19.7308 137.536 19.5355C137.731 19.3403 137.731 19.0237 137.536 18.8284L134.707 16L137.536 13.1716C137.731 12.9763 137.731 12.6597 137.536 12.4645C137.34 12.2692 137.024 12.2692 136.828 12.4645L133.646 15.6464ZM305.354 16.3535C305.549 16.1583 305.549 15.8417 305.354 15.6464L302.172 12.4645C301.976 12.2692 301.66 12.2692 301.464 12.4645C301.269 12.6597 301.269 12.9763 301.464 13.1716L304.293 16L301.464 18.8284C301.269 19.0237 301.269 19.3403 301.464 19.5355C301.66 19.7308 301.976 19.7308 302.172 19.5355L305.354 16.3535ZM134 16.5L305 16.5L305 15.5L134 15.5L134 16.5Z" fill="white"/>
<line x1="309.5" y1="4" x2="309.5" y2="51" stroke="white"/>
<line x1="130.5" y1="4" x2="130.5" y2="51" stroke="white"/>
<path d="M199.176 12L203.08 4.27841V4.21023H198.58V3.27273H204.17V4.26136L200.284 12H199.176ZM208.418 12.1193C207.776 12.1193 207.229 11.9446 206.777 11.5952C206.326 11.2429 205.98 10.733 205.742 10.0653C205.503 9.39489 205.384 8.58523 205.384 7.63636C205.384 6.69318 205.503 5.88778 205.742 5.22017C205.983 4.54972 206.33 4.03835 206.782 3.68608C207.236 3.33097 207.782 3.15341 208.418 3.15341C209.054 3.15341 209.598 3.33097 210.05 3.68608C210.505 4.03835 210.851 4.54972 211.09 5.22017C211.331 5.88778 211.452 6.69318 211.452 7.63636C211.452 8.58523 211.333 9.39489 211.094 10.0653C210.855 10.733 210.51 11.2429 210.059 11.5952C209.607 11.9446 209.06 12.1193 208.418 12.1193ZM208.418 11.1818C209.054 11.1818 209.549 10.875 209.901 10.2614C210.253 9.64773 210.429 8.77273 210.429 7.63636C210.429 6.88068 210.348 6.23722 210.186 5.70597C210.027 5.17472 209.797 4.76989 209.496 4.49148C209.198 4.21307 208.838 4.07386 208.418 4.07386C207.787 4.07386 207.294 4.38494 206.939 5.0071C206.584 5.62642 206.407 6.50284 206.407 7.63636C206.407 8.39205 206.486 9.03409 206.645 9.5625C206.804 10.0909 207.033 10.4929 207.331 10.7685C207.632 11.044 207.995 11.1818 208.418 11.1818ZM213.517 12.0682C213.306 12.0682 213.126 11.9929 212.975 11.8423C212.825 11.6918 212.75 11.5114 212.75 11.3011C212.75 11.0909 212.825 10.9105 212.975 10.7599C213.126 10.6094 213.306 10.5341 213.517 10.5341C213.727 10.5341 213.907 10.6094 214.058 10.7599C214.208 10.9105 214.284 11.0909 214.284 11.3011C214.284 11.4403 214.248 11.5682 214.177 11.6847C214.109 11.8011 214.017 11.8949 213.9 11.9659C213.787 12.0341 213.659 12.0682 213.517 12.0682ZM218.613 12.1193C217.971 12.1193 217.424 11.9446 216.973 11.5952C216.521 11.2429 216.176 10.733 215.937 10.0653C215.699 9.39489 215.579 8.58523 215.579 7.63636C215.579 6.69318 215.699 5.88778 215.937 5.22017C216.179 4.54972 216.525 4.03835 216.977 3.68608C217.431 3.33097 217.977 3.15341 218.613 3.15341C219.25 3.15341 219.794 3.33097 220.245 3.68608C220.7 4.03835 221.047 4.54972 221.285 5.22017C221.527 5.88778 221.647 6.69318 221.647 7.63636C221.647 8.58523 221.528 9.39489 221.289 10.0653C221.051 10.733 220.706 11.2429 220.254 11.5952C219.802 11.9446 219.255 12.1193 218.613 12.1193ZM218.613 11.1818C219.25 11.1818 219.744 10.875 220.096 10.2614C220.449 9.64773 220.625 8.77273 220.625 7.63636C220.625 6.88068 220.544 6.23722 220.382 5.70597C220.223 5.17472 219.993 4.76989 219.691 4.49148C219.393 4.21307 219.034 4.07386 218.613 4.07386C217.983 4.07386 217.49 4.38494 217.135 5.0071C216.779 5.62642 216.602 6.50284 216.602 7.63636C216.602 8.39205 216.681 9.03409 216.841 9.5625C217 10.0909 217.228 10.4929 217.527 10.7685C217.828 11.044 218.19 11.1818 218.613 11.1818ZM225.943 12.1364C225.329 12.1364 224.801 11.9915 224.358 11.7017C223.914 11.4119 223.574 11.0128 223.335 10.5043C223.096 9.99574 222.977 9.41477 222.977 8.76136C222.977 8.09659 223.099 7.50994 223.343 7.00142C223.591 6.49006 223.934 6.09091 224.375 5.80398C224.818 5.5142 225.335 5.36932 225.926 5.36932C226.386 5.36932 226.801 5.45455 227.17 5.625C227.539 5.79545 227.842 6.03409 228.078 6.34091C228.314 6.64773 228.46 7.00568 228.517 7.41477H227.511C227.434 7.11648 227.264 6.85227 227 6.62216C226.738 6.3892 226.386 6.27273 225.943 6.27273C225.551 6.27273 225.207 6.375 224.912 6.57955C224.619 6.78125 224.39 7.06676 224.225 7.43608C224.064 7.80256 223.983 8.23295 223.983 8.72727C223.983 9.23295 224.062 9.6733 224.221 10.0483C224.383 10.4233 224.61 10.7145 224.903 10.9219C225.199 11.1293 225.545 11.233 225.943 11.233C226.204 11.233 226.441 11.1875 226.654 11.0966C226.868 11.0057 227.048 10.875 227.196 10.7045C227.343 10.5341 227.449 10.3295 227.511 10.0909H228.517C228.46 10.4773 228.319 10.8253 228.095 11.1349C227.873 11.4418 227.579 11.6861 227.213 11.8679C226.849 12.0469 226.426 12.1364 225.943 12.1364ZM229.987 12V5.45455H230.958V6.47727H231.044C231.18 6.12784 231.4 5.85653 231.704 5.66335C232.008 5.46733 232.373 5.36932 232.799 5.36932C233.231 5.36932 233.591 5.46733 233.877 5.66335C234.167 5.85653 234.393 6.12784 234.555 6.47727H234.623C234.791 6.1392 235.042 5.87074 235.377 5.67188C235.713 5.47017 236.115 5.36932 236.583 5.36932C237.169 5.36932 237.647 5.55256 238.02 5.91903C238.392 6.28267 238.578 6.84943 238.578 7.61932V12H237.572V7.61932C237.572 7.13636 237.44 6.79119 237.176 6.58381C236.912 6.37642 236.6 6.27273 236.243 6.27273C235.782 6.27273 235.426 6.41193 235.173 6.69034C234.92 6.96591 234.794 7.31534 234.794 7.73864V12H233.771V7.51705C233.771 7.14489 233.65 6.84517 233.409 6.6179C233.167 6.38778 232.856 6.27273 232.475 6.27273C232.214 6.27273 231.97 6.34233 231.743 6.48153C231.518 6.62074 231.336 6.81392 231.197 7.06108C231.061 7.3054 230.993 7.58807 230.993 7.90909V12H229.987Z" fill="white"/>
<path d="M272.873 304.706C273.068 304.511 273.068 304.195 272.873 303.999L269.691 300.817C269.496 300.622 269.179 300.622 268.984 300.817C268.789 301.013 268.789 301.329 268.984 301.524L271.812 304.353L268.984 307.181C268.789 307.377 268.789 307.693 268.984 307.888C269.179 308.084 269.496 308.084 269.691 307.888L272.873 304.706ZM166.127 303.999C165.932 304.195 165.932 304.511 166.127 304.706L169.309 307.888C169.504 308.084 169.821 308.084 170.016 307.888C170.211 307.693 170.211 307.377 170.016 307.181L167.188 304.353L170.016 301.524C170.211 301.329 170.211 301.013 170.016 300.817C169.821 300.622 169.504 300.622 169.309 300.817L166.127 303.999ZM272.52 303.853L166.48 303.853L166.48 304.853L272.52 304.853L272.52 303.853Z" fill="white"/>
<line x1="163.5" y1="320.588" x2="163.5" y2="257" stroke="white"/>
<line x1="274.5" y1="320.588" x2="274.5" y2="257" stroke="white"/>
<path d="M200.699 318.21V317.341L204.534 311.273H205.165V312.619H204.739L201.841 317.205V317.273H207.006V318.21H200.699ZM204.807 320V317.946V317.541V311.273H205.812V320H204.807ZM211.449 320.119C210.807 320.119 210.26 319.945 209.809 319.595C209.357 319.243 209.012 318.733 208.773 318.065C208.534 317.395 208.415 316.585 208.415 315.636C208.415 314.693 208.534 313.888 208.773 313.22C209.015 312.55 209.361 312.038 209.813 311.686C210.267 311.331 210.813 311.153 211.449 311.153C212.086 311.153 212.63 311.331 213.081 311.686C213.536 312.038 213.882 312.55 214.121 313.22C214.363 313.888 214.483 314.693 214.483 315.636C214.483 316.585 214.364 317.395 214.125 318.065C213.887 318.733 213.542 319.243 213.09 319.595C212.638 319.945 212.091 320.119 211.449 320.119ZM211.449 319.182C212.086 319.182 212.58 318.875 212.932 318.261C213.284 317.648 213.461 316.773 213.461 315.636C213.461 314.881 213.38 314.237 213.218 313.706C213.059 313.175 212.828 312.77 212.527 312.491C212.229 312.213 211.87 312.074 211.449 312.074C210.819 312.074 210.326 312.385 209.971 313.007C209.615 313.626 209.438 314.503 209.438 315.636C209.438 316.392 209.517 317.034 209.676 317.562C209.836 318.091 210.064 318.493 210.363 318.768C210.664 319.044 211.026 319.182 211.449 319.182ZM216.548 320.068C216.338 320.068 216.157 319.993 216.007 319.842C215.856 319.692 215.781 319.511 215.781 319.301C215.781 319.091 215.856 318.911 216.007 318.76C216.157 318.609 216.338 318.534 216.548 318.534C216.758 318.534 216.939 318.609 217.089 318.76C217.24 318.911 217.315 319.091 217.315 319.301C217.315 319.44 217.279 319.568 217.208 319.685C217.14 319.801 217.048 319.895 216.931 319.966C216.818 320.034 216.69 320.068 216.548 320.068ZM221.645 320.119C221.002 320.119 220.456 319.945 220.004 319.595C219.552 319.243 219.207 318.733 218.968 318.065C218.73 317.395 218.61 316.585 218.61 315.636C218.61 314.693 218.73 313.888 218.968 313.22C219.21 312.55 219.556 312.038 220.008 311.686C220.463 311.331 221.008 311.153 221.645 311.153C222.281 311.153 222.825 311.331 223.277 311.686C223.731 312.038 224.078 312.55 224.316 313.22C224.558 313.888 224.679 314.693 224.679 315.636C224.679 316.585 224.559 317.395 224.321 318.065C224.082 318.733 223.737 319.243 223.285 319.595C222.833 319.945 222.287 320.119 221.645 320.119ZM221.645 319.182C222.281 319.182 222.775 318.875 223.127 318.261C223.48 317.648 223.656 316.773 223.656 315.636C223.656 314.881 223.575 314.237 223.413 313.706C223.254 313.175 223.024 312.77 222.723 312.491C222.424 312.213 222.065 312.074 221.645 312.074C221.014 312.074 220.521 312.385 220.166 313.007C219.811 313.626 219.633 314.503 219.633 315.636C219.633 316.392 219.713 317.034 219.872 317.562C220.031 318.091 220.26 318.493 220.558 318.768C220.859 319.044 221.221 319.182 221.645 319.182ZM228.974 320.136C228.36 320.136 227.832 319.991 227.389 319.702C226.946 319.412 226.605 319.013 226.366 318.504C226.127 317.996 226.008 317.415 226.008 316.761C226.008 316.097 226.13 315.51 226.375 315.001C226.622 314.49 226.966 314.091 227.406 313.804C227.849 313.514 228.366 313.369 228.957 313.369C229.417 313.369 229.832 313.455 230.201 313.625C230.571 313.795 230.873 314.034 231.109 314.341C231.345 314.648 231.491 315.006 231.548 315.415H230.542C230.466 315.116 230.295 314.852 230.031 314.622C229.77 314.389 229.417 314.273 228.974 314.273C228.582 314.273 228.238 314.375 227.943 314.58C227.65 314.781 227.422 315.067 227.257 315.436C227.095 315.803 227.014 316.233 227.014 316.727C227.014 317.233 227.093 317.673 227.252 318.048C227.414 318.423 227.642 318.714 227.934 318.922C228.23 319.129 228.576 319.233 228.974 319.233C229.235 319.233 229.473 319.188 229.686 319.097C229.899 319.006 230.079 318.875 230.227 318.705C230.375 318.534 230.48 318.33 230.542 318.091H231.548C231.491 318.477 231.35 318.825 231.126 319.135C230.904 319.442 230.61 319.686 230.244 319.868C229.88 320.047 229.457 320.136 228.974 320.136ZM233.018 320V313.455H233.99V314.477H234.075C234.211 314.128 234.431 313.857 234.735 313.663C235.039 313.467 235.404 313.369 235.831 313.369C236.262 313.369 236.622 313.467 236.909 313.663C237.199 313.857 237.424 314.128 237.586 314.477H237.654C237.822 314.139 238.074 313.871 238.409 313.672C238.744 313.47 239.146 313.369 239.615 313.369C240.2 313.369 240.679 313.553 241.051 313.919C241.423 314.283 241.609 314.849 241.609 315.619V320H240.603V315.619C240.603 315.136 240.471 314.791 240.207 314.584C239.943 314.376 239.632 314.273 239.274 314.273C238.814 314.273 238.457 314.412 238.204 314.69C237.951 314.966 237.825 315.315 237.825 315.739V320H236.802V315.517C236.802 315.145 236.681 314.845 236.44 314.618C236.199 314.388 235.887 314.273 235.507 314.273C235.245 314.273 235.001 314.342 234.774 314.482C234.549 314.621 234.368 314.814 234.228 315.061C234.092 315.305 234.024 315.588 234.024 315.909V320H233.018Z" fill="white"/>
<path d="M344.354 480.043C344.158 479.848 343.842 479.848 343.646 480.043L340.464 483.225C340.269 483.42 340.269 483.737 340.464 483.932C340.66 484.127 340.976 484.127 341.172 483.932L344 481.104L346.828 483.932C347.024 484.127 347.34 484.127 347.536 483.932C347.731 483.737 347.731 483.42 347.536 483.225L344.354 480.043ZM343.646 625.957C343.842 626.152 344.158 626.152 344.354 625.957L347.536 622.775C347.731 622.58 347.731 622.263 347.536 622.068C347.34 621.873 347.024 621.873 346.828 622.068L344 624.896L341.172 622.068C340.976 621.873 340.66 621.873 340.464 622.068C340.269 622.263 340.269 622.58 340.464 622.775L343.646 625.957ZM343.5 480.397L343.5 625.603L344.5 625.603L344.5 480.397L343.5 480.397Z" fill="white"/>
<line x1="356" y1="629.5" x2="309" y2="629.5" stroke="white"/>
<line x1="356" y1="477.5" x2="130" y2="477.5" stroke="white"/>
<path d="M348 533.176L355.722 537.08H355.79V532.58H356.727V538.17H355.739L348 534.284V533.176ZM347.881 542.418C347.881 541.776 348.055 541.229 348.405 540.777C348.757 540.326 349.267 539.98 349.935 539.742C350.605 539.503 351.415 539.384 352.364 539.384C353.307 539.384 354.112 539.503 354.78 539.742C355.45 539.983 355.962 540.33 356.314 540.782C356.669 541.236 356.847 541.782 356.847 542.418C356.847 543.054 356.669 543.598 356.314 544.05C355.962 544.505 355.45 544.851 354.78 545.09C354.112 545.331 353.307 545.452 352.364 545.452C351.415 545.452 350.605 545.333 349.935 545.094C349.267 544.855 348.757 544.51 348.405 544.059C348.055 543.607 347.881 543.06 347.881 542.418ZM348.818 542.418C348.818 543.054 349.125 543.549 349.739 543.901C350.352 544.253 351.227 544.429 352.364 544.429C353.119 544.429 353.763 544.348 354.294 544.186C354.825 544.027 355.23 543.797 355.509 543.496C355.787 543.198 355.926 542.838 355.926 542.418C355.926 541.787 355.615 541.294 354.993 540.939C354.374 540.584 353.497 540.407 352.364 540.407C351.608 540.407 350.966 540.486 350.438 540.645C349.909 540.804 349.507 541.033 349.232 541.331C348.956 541.632 348.818 541.995 348.818 542.418ZM347.932 547.517C347.932 547.306 348.007 547.126 348.158 546.975C348.308 546.825 348.489 546.75 348.699 546.75C348.909 546.75 349.089 546.825 349.24 546.975C349.391 547.126 349.466 547.306 349.466 547.517C349.466 547.727 349.391 547.907 349.24 548.058C349.089 548.208 348.909 548.284 348.699 548.284C348.56 548.284 348.432 548.248 348.315 548.177C348.199 548.109 348.105 548.017 348.034 547.9C347.966 547.787 347.932 547.659 347.932 547.517ZM347.881 552.613C347.881 551.971 348.055 551.424 348.405 550.973C348.757 550.521 349.267 550.176 349.935 549.937C350.605 549.699 351.415 549.579 352.364 549.579C353.307 549.579 354.112 549.699 354.78 549.937C355.45 550.179 355.962 550.525 356.314 550.977C356.669 551.431 356.847 551.977 356.847 552.613C356.847 553.25 356.669 553.794 356.314 554.245C355.962 554.7 355.45 555.047 354.78 555.285C354.112 555.527 353.307 555.647 352.364 555.647C351.415 555.647 350.605 555.528 349.935 555.289C349.267 555.051 348.757 554.706 348.405 554.254C348.055 553.802 347.881 553.255 347.881 552.613ZM348.818 552.613C348.818 553.25 349.125 553.744 349.739 554.096C350.352 554.449 351.227 554.625 352.364 554.625C353.119 554.625 353.763 554.544 354.294 554.382C354.825 554.223 355.23 553.993 355.509 553.691C355.787 553.393 355.926 553.034 355.926 552.613C355.926 551.983 355.615 551.49 354.993 551.135C354.374 550.779 353.497 550.602 352.364 550.602C351.608 550.602 350.966 550.681 350.438 550.841C349.909 551 349.507 551.228 349.232 551.527C348.956 551.828 348.818 552.19 348.818 552.613ZM347.864 559.943C347.864 559.329 348.009 558.801 348.298 558.358C348.588 557.914 348.987 557.574 349.496 557.335C350.004 557.096 350.585 556.977 351.239 556.977C351.903 556.977 352.49 557.099 352.999 557.343C353.51 557.591 353.909 557.934 354.196 558.375C354.486 558.818 354.631 559.335 354.631 559.926C354.631 560.386 354.545 560.801 354.375 561.17C354.205 561.539 353.966 561.842 353.659 562.078C353.352 562.314 352.994 562.46 352.585 562.517V561.511C352.884 561.434 353.148 561.264 353.378 561C353.611 560.738 353.727 560.386 353.727 559.943C353.727 559.551 353.625 559.207 353.42 558.912C353.219 558.619 352.933 558.39 352.564 558.225C352.197 558.064 351.767 557.983 351.273 557.983C350.767 557.983 350.327 558.062 349.952 558.221C349.577 558.383 349.286 558.61 349.078 558.903C348.871 559.199 348.767 559.545 348.767 559.943C348.767 560.204 348.812 560.441 348.903 560.654C348.994 560.868 349.125 561.048 349.295 561.196C349.466 561.343 349.67 561.449 349.909 561.511V562.517C349.523 562.46 349.175 562.319 348.865 562.095C348.558 561.873 348.314 561.579 348.132 561.213C347.953 560.849 347.864 560.426 347.864 559.943ZM348 563.987H354.545V564.958H353.523V565.044C353.872 565.18 354.143 565.4 354.337 565.704C354.533 566.008 354.631 566.373 354.631 566.799C354.631 567.231 354.533 567.591 354.337 567.877C354.143 568.167 353.872 568.393 353.523 568.555V568.623C353.861 568.791 354.129 569.042 354.328 569.377C354.53 569.713 354.631 570.115 354.631 570.583C354.631 571.169 354.447 571.647 354.081 572.02C353.717 572.392 353.151 572.578 352.381 572.578H348V571.572H352.381C352.864 571.572 353.209 571.44 353.416 571.176C353.624 570.912 353.727 570.6 353.727 570.243C353.727 569.782 353.588 569.426 353.31 569.173C353.034 568.92 352.685 568.794 352.261 568.794H348V567.771H352.483C352.855 567.771 353.155 567.65 353.382 567.409C353.612 567.167 353.727 566.856 353.727 566.475C353.727 566.214 353.658 565.97 353.518 565.743C353.379 565.518 353.186 565.336 352.939 565.197C352.695 565.061 352.412 564.993 352.091 564.993H348V563.987Z" fill="white"/>
<path d="M94.6464 467.354C94.8417 467.549 95.1583 467.549 95.3536 467.354L98.5355 464.172C98.7308 463.976 98.7308 463.66 98.5355 463.464C98.3403 463.269 98.0237 463.269 97.8284 463.464L95 466.293L92.1716 463.464C91.9763 463.269 91.6597 463.269 91.4645 463.464C91.2692 463.66 91.2692 463.976 91.4645 464.172L94.6464 467.354ZM95.3535 53.6464C95.1583 53.4512 94.8417 53.4512 94.6464 53.6464L91.4644 56.8284C91.2692 57.0237 91.2692 57.3403 91.4644 57.5355C91.6597 57.7308 91.9763 57.7308 92.1716 57.5355L95 54.7071L97.8284 57.5355C98.0237 57.7308 98.3403 57.7308 98.5355 57.5355C98.7308 57.3403 98.7308 57.0237 98.5355 56.8284L95.3535 53.6464ZM95.5 467L95.5 54L94.5 54L94.5 467L95.5 467Z" fill="white"/>
<line x1="83" y1="50.5" x2="130" y2="50.5" stroke="white"/>
<line x1="83" y1="476.5" x2="130" y2="476.5" stroke="white"/>
<path d="M87 284.097H86.233L83.0795 281.216C82.7102 280.878 82.3892 280.599 82.1165 280.381C81.8409 280.162 81.5824 280 81.3409 279.895C81.0966 279.787 80.8409 279.733 80.5739 279.733C80.267 279.733 80.0014 279.807 79.777 279.955C79.5526 280.099 79.3793 280.298 79.2571 280.551C79.1349 280.804 79.0739 281.088 79.0739 281.403C79.0739 281.739 79.1435 282.031 79.2827 282.281C79.419 282.528 79.6108 282.72 79.858 282.857C80.1051 282.99 80.3949 283.057 80.7273 283.057V284.062C80.2159 284.062 79.767 283.945 79.3807 283.709C78.9943 283.473 78.6932 283.152 78.4773 282.746C78.2614 282.337 78.1534 281.878 78.1534 281.369C78.1534 280.858 78.2614 280.405 78.4773 280.01C78.6932 279.615 78.9844 279.305 79.3509 279.081C79.7173 278.857 80.125 278.744 80.5739 278.744C80.8949 278.744 81.2088 278.803 81.5156 278.919C81.8196 279.033 82.1591 279.232 82.5341 279.516C82.9062 279.797 83.3608 280.188 83.8977 280.688L85.9943 282.648H86.0625V278.591H87V284.097ZM78.2727 273.763H87V274.82H79.3807V274.871L80.7955 277.001H79.7216L78.2727 274.82V273.763ZM87.1193 268.406C87.1193 269.048 86.9446 269.595 86.5952 270.047C86.2429 270.499 85.733 270.844 85.0653 271.082C84.3949 271.321 83.5852 271.44 82.6364 271.44C81.6932 271.44 80.8878 271.321 80.2202 271.082C79.5497 270.841 79.0384 270.494 78.6861 270.043C78.331 269.588 78.1534 269.043 78.1534 268.406C78.1534 267.77 78.331 267.226 78.6861 266.774C79.0384 266.32 79.5497 265.973 80.2202 265.734C80.8878 265.493 81.6932 265.372 82.6364 265.372C83.5852 265.372 84.3949 265.491 85.0653 265.73C85.733 265.969 86.2429 266.314 86.5952 266.766C86.9446 267.217 87.1193 267.764 87.1193 268.406ZM86.1818 268.406C86.1818 267.77 85.875 267.276 85.2614 266.923C84.6477 266.571 83.7727 266.395 82.6364 266.395C81.8807 266.395 81.2372 266.476 80.706 266.638C80.1747 266.797 79.7699 267.027 79.4915 267.328C79.2131 267.626 79.0739 267.986 79.0739 268.406C79.0739 269.037 79.3849 269.53 80.0071 269.885C80.6264 270.24 81.5028 270.418 82.6364 270.418C83.392 270.418 84.0341 270.338 84.5625 270.179C85.0909 270.02 85.4929 269.791 85.7685 269.493C86.044 269.192 86.1818 268.83 86.1818 268.406ZM87.0682 263.308C87.0682 263.518 86.9929 263.698 86.8423 263.849C86.6918 263.999 86.5114 264.075 86.3011 264.075C86.0909 264.075 85.9105 263.999 85.7599 263.849C85.6094 263.698 85.5341 263.518 85.5341 263.308C85.5341 263.097 85.6094 262.917 85.7599 262.766C85.9105 262.616 86.0909 262.54 86.3011 262.54C86.4403 262.54 86.5682 262.576 86.6847 262.647C86.8011 262.715 86.8949 262.808 86.9659 262.924C87.0341 263.038 87.0682 263.165 87.0682 263.308ZM87.1193 258.211C87.1193 258.853 86.9446 259.4 86.5952 259.852C86.2429 260.303 85.733 260.648 85.0653 260.887C84.3949 261.126 83.5852 261.245 82.6364 261.245C81.6932 261.245 80.8878 261.126 80.2202 260.887C79.5497 260.646 79.0384 260.299 78.6861 259.847C78.331 259.393 78.1534 258.847 78.1534 258.211C78.1534 257.575 78.331 257.031 78.6861 256.579C79.0384 256.124 79.5497 255.778 80.2202 255.539C80.8878 255.298 81.6932 255.177 82.6364 255.177C83.5852 255.177 84.3949 255.296 85.0653 255.535C85.733 255.773 86.2429 256.119 86.5952 256.57C86.9446 257.022 87.1193 257.569 87.1193 258.211ZM86.1818 258.211C86.1818 257.575 85.875 257.08 85.2614 256.728C84.6477 256.376 83.7727 256.2 82.6364 256.2C81.8807 256.2 81.2372 256.281 80.706 256.442C80.1747 256.602 79.7699 256.832 79.4915 257.133C79.2131 257.431 79.0739 257.79 79.0739 258.211C79.0739 258.842 79.3849 259.335 80.0071 259.69C80.6264 260.045 81.5028 260.222 82.6364 260.222C83.392 260.222 84.0341 260.143 84.5625 259.984C85.0909 259.825 85.4929 259.596 85.7685 259.298C86.044 258.996 86.1818 258.634 86.1818 258.211ZM87.1364 250.881C87.1364 251.495 86.9915 252.023 86.7017 252.467C86.4119 252.91 86.0128 253.251 85.5043 253.489C84.9957 253.728 84.4148 253.847 83.7614 253.847C83.0966 253.847 82.5099 253.725 82.0014 253.481C81.4901 253.234 81.0909 252.89 80.804 252.45C80.5142 252.006 80.3693 251.489 80.3693 250.898C80.3693 250.438 80.4545 250.023 80.625 249.654C80.7955 249.285 81.0341 248.982 81.3409 248.746C81.6477 248.511 82.0057 248.364 82.4148 248.308V249.313C82.1165 249.39 81.8523 249.56 81.6222 249.825C81.3892 250.086 81.2727 250.438 81.2727 250.881C81.2727 251.273 81.375 251.617 81.5795 251.913C81.7812 252.205 82.0668 252.434 82.4361 252.599C82.8026 252.761 83.233 252.842 83.7273 252.842C84.233 252.842 84.6733 252.762 85.0483 252.603C85.4233 252.441 85.7145 252.214 85.9219 251.921C86.1293 251.626 86.233 251.279 86.233 250.881C86.233 250.62 86.1875 250.383 86.0966 250.17C86.0057 249.957 85.875 249.776 85.7045 249.629C85.5341 249.481 85.3295 249.376 85.0909 249.313V248.308C85.4773 248.364 85.8253 248.505 86.1349 248.729C86.4418 248.951 86.6861 249.245 86.8679 249.612C87.0469 249.975 87.1364 250.398 87.1364 250.881ZM87 246.837H80.4545V245.866H81.4773V245.781C81.1278 245.644 80.8565 245.424 80.6634 245.12C80.4673 244.816 80.3693 244.451 80.3693 244.025C80.3693 243.593 80.4673 243.234 80.6634 242.947C80.8565 242.657 81.1278 242.431 81.4773 242.269V242.201C81.1392 242.033 80.8707 241.782 80.6719 241.447C80.4702 241.112 80.3693 240.71 80.3693 240.241C80.3693 239.656 80.5526 239.177 80.919 238.805C81.2827 238.433 81.8494 238.246 82.6193 238.246H87V239.252H82.6193C82.1364 239.252 81.7912 239.384 81.5838 239.648C81.3764 239.913 81.2727 240.224 81.2727 240.582C81.2727 241.042 81.4119 241.398 81.6903 241.651C81.9659 241.904 82.3153 242.031 82.7386 242.031H87V243.053H82.517C82.1449 243.053 81.8452 243.174 81.6179 243.415C81.3878 243.657 81.2727 243.968 81.2727 244.349C81.2727 244.61 81.3423 244.854 81.4815 245.082C81.6207 245.306 81.8139 245.488 82.0611 245.627C82.3054 245.763 82.5881 245.832 82.9091 245.832H87V246.837Z" fill="white"/>
</svg>
