<svg  viewBox="0 0 141 116" fill="none" xmlns="http://www.w3.org/2000/svg">
<path fill-rule="evenodd" clip-rule="evenodd" d="M10 0C4.47715 0 0 4.47715 0 10V106C0 111.523 4.47715 116 10 116H131C136.523 116 141 111.523 141 106V10C141 4.47715 136.523 0 131 0H10ZM25.0909 29.7273H19.0227V53H23.7955V37.7955H23.9886L30.0114 52.8864H33.2614L39.2841 37.8523H39.4773V53H44.25V29.7273H38.1818L31.7727 45.3636H31.5L25.0909 29.7273ZM56.517 52.5C57.0549 53.0303 57.6989 53.2955 58.4489 53.2955C58.9413 53.2955 59.392 53.1742 59.8011 52.9318C60.2102 52.6818 60.5398 52.3523 60.7898 51.9432C61.0473 51.5265 61.1761 51.0682 61.1761 50.5682C61.1761 49.8258 60.9034 49.1894 60.358 48.6591C59.8125 48.1288 59.1761 47.8636 58.4489 47.8636C57.6989 47.8636 57.0549 48.1288 56.517 48.6591C55.9867 49.1894 55.7216 49.8258 55.7216 50.5682C55.7216 51.3182 55.9867 51.9621 56.517 52.5ZM38.3182 68.7273H33.3977V83.4205C33.3977 84.3068 33.2008 85.0947 32.8068 85.7841C32.4205 86.4735 31.8712 87.0152 31.1591 87.4091C30.4545 87.803 29.625 88 28.6705 88C27.7235 88 26.8939 87.803 26.1818 87.4091C25.4697 87.0152 24.9167 86.4735 24.5227 85.7841C24.1364 85.0947 23.9432 84.3068 23.9432 83.4205V68.7273H19.0227V83.8409C19.0227 85.5379 19.4242 87.0227 20.2273 88.2955C21.0303 89.5682 22.1553 90.5606 23.6023 91.2727C25.0492 91.9773 26.7386 92.3295 28.6705 92.3295C30.5947 92.3295 32.2803 91.9773 33.7273 91.2727C35.1742 90.5606 36.2992 89.5682 37.1023 88.2955C37.9129 87.0227 38.3182 85.5379 38.3182 83.8409V68.7273ZM42.3665 68.7273V92H47.1392V89.2045H47.3551C47.5748 89.6894 47.893 90.1705 48.3097 90.6477C48.7263 91.1174 49.2604 91.5076 49.9119 91.8182C50.571 92.1288 51.3703 92.2841 52.3097 92.2841C53.6354 92.2841 54.8324 91.9432 55.9006 91.2614C56.9763 90.572 57.8248 89.5606 58.446 88.2273C59.0748 86.8864 59.3892 85.2424 59.3892 83.2955C59.3892 81.2955 59.0672 79.6326 58.4233 78.3068C57.7794 76.9735 56.9195 75.9773 55.8438 75.3182C54.768 74.6515 53.5938 74.3182 52.321 74.3182C51.3438 74.3182 50.5256 74.4848 49.8665 74.8182C49.215 75.1439 48.6847 75.553 48.2756 76.0455C47.8741 76.5303 47.5672 77.0076 47.3551 77.4773H47.2074V68.7273H42.3665ZM47.5369 85.9886C47.2491 85.2159 47.1051 84.3106 47.1051 83.2727C47.1051 82.2348 47.2491 81.3333 47.5369 80.5682C47.8248 79.803 48.2377 79.2121 48.7756 78.7955C49.321 78.3788 49.9877 78.1705 50.7756 78.1705C51.571 78.1705 52.2415 78.3864 52.7869 78.8182C53.3324 79.25 53.7453 79.8485 54.0256 80.6136C54.3059 81.3788 54.446 82.2652 54.446 83.2727C54.446 84.2879 54.3021 85.1856 54.0142 85.9659C53.7339 86.7386 53.321 87.3447 52.7756 87.7841C52.2301 88.2159 51.5634 88.4318 50.7756 88.4318C49.9953 88.4318 49.3324 88.2197 48.7869 87.7955C48.2415 87.3636 47.8248 86.7614 47.5369 85.9886ZM65.9375 91.25C67.233 91.9773 68.7784 92.3409 70.5739 92.3409C72.0133 92.3409 73.2822 92.1212 74.3807 91.6818C75.4867 91.2348 76.3883 90.6136 77.0852 89.8182C77.7898 89.0152 78.2557 88.0758 78.483 87L74.0057 86.7045C73.839 87.1439 73.5966 87.5152 73.2784 87.8182C72.9602 88.1212 72.5777 88.3485 72.1307 88.5C71.6837 88.6515 71.1913 88.7273 70.6534 88.7273C69.8428 88.7273 69.142 88.5568 68.5511 88.2159C67.9602 87.875 67.5019 87.3902 67.1761 86.7614C66.858 86.1326 66.6989 85.3864 66.6989 84.5227V84.5114H78.5852V83.1818C78.5852 81.697 78.3769 80.4015 77.9602 79.2955C77.5436 78.1818 76.9602 77.2576 76.2102 76.5227C75.4678 75.7879 74.5966 75.2386 73.5966 74.875C72.6042 74.5038 71.5322 74.3182 70.3807 74.3182C68.6686 74.3182 67.1761 74.697 65.9034 75.4545C64.6383 76.2121 63.6572 77.2689 62.9602 78.625C62.2633 79.9811 61.9148 81.5568 61.9148 83.3523C61.9148 85.1932 62.2633 86.7879 62.9602 88.1364C63.6572 89.4773 64.6496 90.5152 65.9375 91.25ZM66.7034 81.5114C66.7326 80.8846 66.894 80.3126 67.1875 79.7955C67.5057 79.2273 67.9451 78.7765 68.5057 78.4432C69.0739 78.1023 69.7254 77.9318 70.4602 77.9318C71.1648 77.9318 71.7822 78.0871 72.3125 78.3977C72.8504 78.7008 73.2708 79.1212 73.5739 79.6591C73.8769 80.197 74.0284 80.8144 74.0284 81.5114H66.7034ZM86.5852 74.5455H81.7443V92H86.5852V74.5455ZM82.3239 71.5795C82.839 72.0568 83.4564 72.2955 84.1761 72.2955C84.8958 72.2955 85.5095 72.0568 86.017 71.5795C86.5322 71.0947 86.7898 70.5152 86.7898 69.8409C86.7898 69.1742 86.5322 68.6023 86.017 68.125C85.5095 67.6402 84.8958 67.3977 84.1761 67.3977C83.4564 67.3977 82.839 67.6402 82.3239 68.125C81.8163 68.6023 81.5625 69.1742 81.5625 69.8409C81.5625 70.5152 81.8163 71.0947 82.3239 71.5795ZM95.1562 74.5455H90.4631V92H95.304V82.125C95.304 81.4129 95.4631 80.7841 95.7812 80.2386C96.107 79.6932 96.5464 79.2689 97.0994 78.9659C97.66 78.6553 98.2964 78.5 99.0085 78.5C99.3419 78.5 99.7093 78.5265 100.111 78.5795C100.512 78.6326 100.827 78.6932 101.054 78.7614V74.4659C100.842 74.4129 100.596 74.3712 100.315 74.3409C100.035 74.3106 99.7737 74.2955 99.5312 74.2955C98.554 74.2955 97.6903 74.5758 96.9403 75.1364C96.1903 75.6894 95.6562 76.5076 95.3381 77.5909H95.1562V74.5455ZM105.057 91.75C105.928 92.1364 106.92 92.3295 108.034 92.3295C108.898 92.3295 109.659 92.2159 110.318 91.9886C110.977 91.7538 111.542 91.4318 112.011 91.0227C112.481 90.6061 112.856 90.125 113.136 89.5795H113.273V92H117.864V80.2273C117.864 79.1894 117.663 78.2992 117.261 77.5568C116.86 76.8068 116.311 76.1932 115.614 75.7159C114.924 75.2386 114.133 74.8864 113.239 74.6591C112.352 74.4318 111.424 74.3182 110.455 74.3182C109.061 74.3182 107.833 74.5303 106.773 74.9545C105.72 75.3712 104.86 75.9697 104.193 76.75C103.527 77.5227 103.08 78.4394 102.852 79.5L107.33 79.8636C107.496 79.2879 107.837 78.8106 108.352 78.4318C108.867 78.0455 109.561 77.8523 110.432 77.8523C111.258 77.8523 111.894 78.0492 112.341 78.4432C112.795 78.8371 113.023 79.3939 113.023 80.1136V80.1818C113.023 80.553 112.883 80.8333 112.602 81.0227C112.322 81.2121 111.871 81.3561 111.25 81.4545C110.629 81.5455 109.811 81.6439 108.795 81.75C107.932 81.8333 107.106 81.9773 106.318 82.1818C105.538 82.3864 104.841 82.6894 104.227 83.0909C103.614 83.4924 103.129 84.0227 102.773 84.6818C102.417 85.3409 102.239 86.1553 102.239 87.125C102.239 88.2765 102.489 89.2386 102.989 90.0114C103.496 90.7765 104.186 91.3561 105.057 91.75ZM111.307 88.5682C110.761 88.8485 110.133 88.9886 109.42 88.9886C108.678 88.9886 108.064 88.8182 107.58 88.4773C107.102 88.1288 106.864 87.625 106.864 86.9659C106.864 86.5114 106.981 86.1326 107.216 85.8295C107.451 85.5189 107.78 85.2727 108.205 85.0909C108.629 84.9091 109.125 84.7765 109.693 84.6932C109.958 84.6553 110.254 84.6136 110.58 84.5682C110.905 84.5152 111.231 84.4583 111.557 84.3977C111.883 84.3295 112.174 84.2576 112.432 84.1818C112.697 84.0985 112.905 84.0076 113.057 83.9091V85.7614C113.057 86.375 112.902 86.9242 112.591 87.4091C112.28 87.8939 111.852 88.2803 111.307 88.5682Z" fill="#272727"/>
</svg>
